<svg width="198" height="74" viewBox="0 0 198 74" fill="none" xmlns="http://www.w3.org/2000/svg">
<rect x="1" y="1" width="196" height="72" rx="15" stroke="#6262FF" stroke-width="2"/>
<path d="M18.3253 51L17.6053 48.84L18.3253 45.24V25.512H24.8053V40.308L24.4453 45.24H25.1653L31.6093 44.88L34.1653 44.52L37.3333 48.696L35.5693 51H18.3253ZM40.2192 51V31.272L39.8592 27.672L40.2192 25.512H46.7352V51H40.2192ZM63.2429 51.36C61.6109 51.36 60.0269 51.18 58.4909 50.82C56.9549 50.436 55.5629 49.764 54.3149 48.804C53.0909 47.844 52.1189 46.512 51.3989 44.808C50.6789 43.104 50.3189 40.92 50.3189 38.256C50.3189 35.784 50.6789 33.708 51.3989 32.028C52.1189 30.348 53.0789 29.004 54.2789 27.996C55.4789 26.988 56.7869 26.268 58.2029 25.836C59.6429 25.38 61.0829 25.152 62.5229 25.152C63.7469 25.152 64.9349 25.248 66.0869 25.44C67.2629 25.632 68.1149 25.848 68.6429 26.088L72.6389 29.364L69.3989 34.584L63.2429 31.416C61.5389 31.416 60.0989 31.98 58.9229 33.108C57.7469 34.212 57.1589 35.928 57.1589 38.256C57.1589 39.912 57.4469 41.256 58.0229 42.288C58.6229 43.32 59.4389 44.076 60.4709 44.556C61.5029 45.036 62.6789 45.276 63.9989 45.276C65.3909 45.276 66.5789 45.168 67.5629 44.952C68.5469 44.712 69.4109 44.436 70.1549 44.124C70.8989 43.788 71.6069 43.464 72.2789 43.152V49.2C71.4389 49.728 70.3229 50.22 68.9309 50.676C67.5389 51.132 65.6429 51.36 63.2429 51.36ZM76.395 51V31.272L76.035 27.672L76.395 25.512H82.911V51H76.395ZM92.9747 51V31.272L85.7747 31.632V25.512H106.835V31.632L99.4547 31.272V45.24L99.8507 48.84L99.4547 51H92.9747Z" fill="#0000CC" fill-opacity="0.8"/>
<g clip-path="url(#clip0_426_999)">
<rect x="117" y="4" width="71" height="65" rx="16" fill="#3333D6"/>
<path d="M125.316 56L127.62 47.888V41.792L131.172 40.352L137.412 22.064H149.844L157.572 43.568L161.268 50.384V56H152.772L150.372 48.32H136.404L134.34 56H125.316ZM139.572 40.928H147.732L144.084 29.936H143.076L139.572 40.928ZM164.149 56V29.696L163.669 24.896L164.149 22.016H172.837V56H164.149ZM164.773 19.568L167.941 10.352H173.797V13.28L167.173 19.568H164.773Z" fill="white"/>
</g>
<rect x="117.5" y="4.5" width="70" height="64" rx="15.5" stroke="#3333D6"/>
<defs>
<clipPath id="clip0_426_999">
<rect x="117" y="4" width="71" height="65" rx="16" fill="white"/>
</clipPath>
</defs>
</svg>
